<svg width="30" height="52" viewBox="0 0 30 52" fill="none" xmlns="http://www.w3.org/2000/svg">
    <path d="M26.9488 18.415C23.6494 8.43047 16.6947 1.88015 15.4386 0.758778C15.3415 0.672519 15.1744 0.5 15.1744 0.5C15.1744 0.5 15.0073 0.672519 14.9048 0.764169C13.6379 1.90172 6.69402 8.44665 3.39999 18.415C1.69637 23.5798 0.688209 28.599 0.941596 34.125L5.01196 38.2169C4.07389 31.645 4.88257 25.6123 6.87732 19.5633C8.95833 13.261 12.7322 8.39273 15.169 5.70252C17.6058 8.39273 21.3797 13.261 23.4607 19.5633C25.4231 25.4991 25.9568 31.7744 25.0888 38.2169L29.1322 34.1573C29.3425 28.75 28.6147 23.4773 26.9434 18.415H26.9488Z"
          fill="white"/>
    <path d="M15.0506 43.9747C12.3442 43.9747 9.88042 42.945 8.02045 41.2576C8.44635 44.8535 10.894 48.746 15.1962 51.42C19.5846 48.692 21.9621 44.6918 22.3179 41.0365C20.4364 42.8588 17.8756 43.9801 15.0506 43.9801V43.9747Z"
          fill="#01FF3D"/>
    <path d="M15.0506 43.9747C12.3442 43.9747 9.88042 42.945 8.02045 41.2576C8.44635 44.8535 10.894 48.746 15.1962 51.42C19.5846 48.692 21.9621 44.6918 22.3179 41.0365C20.4364 42.8588 17.8756 43.9801 15.0506 43.9801V43.9747Z"
          fill="#01FF3D"/>
</svg>
