<svg width="168" height="170" viewBox="0 0 168 170" fill="none" xmlns="http://www.w3.org/2000/svg">
<path d="M0.263885 14.3184L9.54902 30.6602L40.3098 84.7955L9.54902 138.937L0.263885 155.279H166.282V14.3184H0.263885Z" fill="#01FF3D"/>
<path d="M162.838 166.918L159.944 168.685L160.729 165.384L158.153 163.18L161.532 162.91L162.832 159.777L164.131 162.91L167.51 163.18L164.934 165.384L165.719 168.685L162.826 166.918H162.838Z" fill="#FFC007"/>
<path d="M151.324 166.918L148.431 168.685L149.215 165.384L146.64 163.18L150.018 162.91L151.318 159.777L152.618 162.91L155.997 163.18L153.421 165.384L154.205 168.685L151.312 166.918H151.324Z" fill="#FFC007"/>
<path d="M139.81 166.918L136.917 168.685L137.702 165.384L135.126 163.18L138.505 162.91L139.804 159.777L141.104 162.91L144.483 163.18L141.907 165.384L142.692 168.685L139.798 166.918H139.81Z" fill="#FFC007"/>
<path d="M128.297 166.918L125.404 168.685L126.188 165.384L123.612 163.18L126.991 162.91L128.291 159.777L129.591 162.91L132.969 163.18L130.394 165.384L131.178 168.685L128.285 166.918H128.297Z" fill="#FFC007"/>
<path d="M116.783 166.918L113.89 168.685L114.675 165.384L112.099 163.18L115.477 162.91L116.777 159.777L118.077 162.91L121.456 163.18L118.88 165.384L119.665 168.685L116.771 166.918H116.783Z" fill="#FFC007"/>
<path d="M52.009 116.628C52.009 120.989 49.1636 123.637 44.539 123.637H40.16V109.565H44.539C49.1636 109.565 52.009 112.273 52.009 116.634V116.628ZM44.539 122.121C48.2111 122.121 50.134 120.061 50.134 116.628C50.134 113.196 48.2171 111.057 44.539 111.057H41.9931V122.121H44.539Z" fill="black"/>
<path d="M54.4351 109.56H56.2742V123.631H54.4351V109.56Z" fill="black"/>
<path d="M67.7219 120.504H61.5817L60.4495 123.631H58.5086L63.5945 109.638H65.7151L70.783 123.631H68.8421L67.7099 120.504H67.7219ZM64.6548 111.902L62.1089 119.007H67.1947L64.6488 111.902H64.6548Z" fill="black"/>
<path d="M77.4743 123.775C74.6468 123.775 72.646 122.199 72.61 119.875H74.5689C74.6887 121.043 75.5154 122.217 77.4743 122.217C79.2534 122.217 80.3017 121.205 80.3017 119.875C80.3017 116.077 72.6879 118.503 72.6879 113.274C72.6879 110.95 74.5629 109.374 77.3545 109.374C80.146 109.374 81.7993 110.848 82.021 112.986H80.0022C79.8824 112.04 78.9898 110.967 77.2766 110.95C75.761 110.908 74.5689 111.698 74.5689 113.208C74.5689 116.844 82.1588 114.58 82.1588 119.791C82.1588 121.792 80.5234 123.769 77.4743 123.769V123.775Z" fill="black"/>
<path d="M102.107 116.628C102.107 120.989 99.2614 123.637 94.6368 123.637H90.2578V109.565H94.6368C99.2614 109.565 102.107 112.273 102.107 116.634V116.628ZM94.6368 122.121C98.3089 122.121 100.232 120.061 100.232 116.628C100.232 113.196 98.3149 111.057 94.6368 111.057H92.0908V122.121H94.6368Z" fill="black"/>
<path d="M112.105 111.058H106.372V115.76H111.5V117.276H106.372V122.122H112.105V123.637H104.533V109.542H112.105V111.058Z" fill="black"/>
<path d="M53.0813 132.874H49.2654C48.7383 131.928 47.7738 131.418 46.4799 131.418C44.2574 131.418 42.7838 132.994 42.7838 135.456C42.7838 138.08 44.2754 139.613 46.7614 139.613C48.4747 139.613 49.6668 138.703 50.1939 137.109H45.8149V134.563H53.3269V137.774C52.6021 140.218 50.2359 142.662 46.5038 142.662C42.2626 142.662 39.2734 139.697 39.2734 135.456C39.2734 131.215 42.2387 128.226 46.4799 128.226C49.8705 128.226 52.3325 129.963 53.0813 132.868V132.874Z" fill="black"/>
<path d="M64.0617 140.063H58.7722L57.9216 142.567H54.3093L59.4371 128.394H63.4327L68.5605 142.567H64.9064L64.0557 140.063H64.0617ZM61.414 132.209L59.6767 137.397H63.1692L61.414 132.209Z" fill="black"/>
<path d="M75.9167 128.394C79.3912 128.394 81.1284 130.394 81.1284 132.856C81.1284 134.636 80.158 136.307 77.9774 136.954L81.2482 142.567H77.3485L74.4012 137.217H73.5745V142.567H70.124V128.394H75.9167ZM75.7131 131.263H73.5745V134.773H75.7131C77.007 134.773 77.612 134.108 77.612 132.994C77.612 131.946 77.007 131.257 75.7131 131.257V131.263Z" fill="black"/>
<path d="M92.1148 140.063H86.8253L85.9746 142.567H82.3624L87.4902 128.394H91.4858L96.6136 142.567H92.9595L92.1088 140.063H92.1148ZM89.4671 132.209L87.7298 137.397H91.2222L89.4671 132.209Z" fill="black"/>
<path d="M110.853 128.394V142.567H107.402L101.628 133.827V142.567H98.1771V128.394H101.628L107.402 137.175V128.394H110.853Z" fill="black"/>
<path d="M112.59 128.394H123.552V131.161H119.796V142.567H116.346V131.161H112.59V128.394Z" fill="black"/>
<path d="M125.29 128.394H128.74V142.567H125.29V128.394Z" fill="black"/>
<path d="M140.068 140.063H134.779L133.928 142.567H130.316L135.443 128.394H139.439L144.567 142.567H140.913L140.062 140.063H140.068ZM137.42 132.209L135.683 137.397H139.175L137.42 132.209Z" fill="black"/>
<path d="M69.2734 149.684L61.0126 168.691H101.118L109.026 149.684H69.2734Z" fill="black" stroke="#01FF3D" stroke-width="1.19808" stroke-miterlimit="10"/>
<path d="M47.9475 1.25879V34.7212H119.227L89.6827 102.712H128.56L158.644 30.3662V1.25879H47.9475Z" fill="black" stroke="#01FF3D" stroke-width="1.19808" stroke-miterlimit="10"/>
</svg>
